<?xml version="1.0" standalone="no"?>
<!DOCTYPE svg PUBLIC "-//W3C//DTD SVG 20010904//EN"
 "http://www.w3.org/TR/2001/REC-SVG-20010904/DTD/svg10.dtd">
<svg version="1.0" xmlns="http://www.w3.org/2000/svg"
 width="24.000000pt" height="24.000000pt" viewBox="0 0 24.000000 24.000000"
 preserveAspectRatio="xMidYMid meet">

<g transform="translate(0.000000,24.000000) scale(0.100000,-0.100000)"
fill="yellow" stroke="none">
<path d="M92 227 c-17 -20 22 -57 40 -39 10 10 8 17 -8 33 -17 17 -22 18 -32
6z"/>
<path d="M142 180 c-11 -17 -10 -23 3 -36 13 -13 18 -14 33 -3 9 7 19 15 21
16 5 4 -30 43 -38 43 -3 0 -12 -9 -19 -20z"/>
<path d="M116 119 c23 -24 30 -27 32 -14 5 22 -16 45 -41 45 -19 0 -18 -2 9
-31z"/>
<path d="M185 129 c-4 -5 1 -19 11 -30 13 -15 20 -16 31 -8 11 10 11 15 -3 30
-19 22 -30 24 -39 8z"/>
</g>
</svg>
