<svg version="1.1" xmlns="http://www.w3.org/2000/svg" viewBox="0 0 24 24" xmlns:xlink="http://www.w3.org/1999/xlink" enable-background="new 0 0 24 24">
  <g>
    <path d="m23,20h-1c-0.1,0-0.2,0-0.3-0.1-0.2-0.2-0.3-0.5-0.1-0.7 1.6-2 2.4-4.5 2.4-7.2 0-5.5-3.7-10.1-8.7-11.5-0.6-0.2-1.3,0.3-1.3,1v2.1c0,0.4 0.2,0.8 0.6,0.9 3.1,1.1 5.4,4.1 5.4,7.5 0,1.4-0.4,2.8-1.1,4-0.1,0.1-0.2,0.2-0.4,0.2-0.3,0-0.5-0.2-0.5-0.5v-0.7c0-0.6-0.4-1-1-1h-2c-0.6,0-1,0.4-1,1v8c0,0.6 0.4,1 1,1h8c0.6,0 1-0.4 1-1v-2c0-0.6-0.4-1-1-1z" fill="white"/>
    <path d="M9,0H1C0.4,0,0,0.4,0,1v2c0,0.6,0.4,1,1,1h1c0.1,0,0.2,0,0.3,0.1c0.2,0.2,0.3,0.5,0.1,0.7l0,0C0.8,6.8,0,9.3,0,12   c0,5.5,3.7,10.1,8.7,11.5c0.6,0.2,1.3-0.3,1.3-1v-2.1c0-0.4-0.2-0.8-0.6-0.9C6.3,18.4,4,15.4,4,12c0-1.4,0.4-2.8,1.1-4   c0.1-0.1,0.2-0.2,0.4-0.2C5.8,7.8,6,8,6,8.3V9c0,0.6,0.4,1,1,1h2c0.6,0,1-0.4,1-1V1C10,0.4,9.6,0,9,0z" fill="white"/>
  </g>
</svg>