<?xml version="1.0" standalone="no"?>
<!DOCTYPE svg PUBLIC "-//W3C//DTD SVG 20010904//EN"
 "http://www.w3.org/TR/2001/REC-SVG-20010904/DTD/svg10.dtd">
<svg version="1.0" xmlns="http://www.w3.org/2000/svg"
 width="512.000000pt" height="512.000000pt" viewBox="0 0 512.000000 512.000000"
 preserveAspectRatio="xMidYMid meet">

<g transform="translate(0.000000,512.000000) scale(0.100000,-0.100000)"
fill="#122939" stroke="none">
<path d="M935 5101 c-56 -26 -899 -872 -920 -923 -18 -44 -19 -85 -4 -125 14
-38 1245 -1271 1286 -1289 38 -17 91 -18 129 -4 15 6 73 56 129 110 56 55 106
100 111 100 5 0 34 -25 64 -55 l55 -55 -137 -138 c-75 -75 -144 -153 -154
-172 -13 -25 -19 -57 -19 -110 0 -64 4 -82 28 -122 l28 -48 -108 0 c-125 0
-206 -15 -318 -59 -89 -35 -208 -111 -239 -153 -27 -38 -33 -125 -11 -169 9
-19 87 -105 173 -191 l157 -158 -99 -99 c-88 -88 -103 -99 -142 -105 -97 -13
-202 -96 -247 -194 -33 -72 -31 -198 4 -273 34 -72 96 -134 168 -168 75 -35
201 -37 273 -4 98 45 179 148 194 245 6 37 19 56 105 143 l98 100 163 -161
c175 -173 204 -191 281 -181 22 3 52 14 66 25 68 50 156 205 193 340 16 57 21
109 22 203 l1 125 49 -30 c44 -28 58 -31 125 -31 54 0 86 6 111 19 19 10 97
79 172 154 l138 137 55 -55 c30 -30 55 -59 55 -65 0 -6 -43 -53 -96 -105 -53
-52 -102 -109 -110 -127 -18 -41 -18 -95 0 -136 18 -41 1251 -1272 1289 -1286
40 -15 81 -14 125 4 46 19 894 862 923 917 22 44 24 96 5 141 -18 42 -1252
1273 -1289 1287 -39 14 -92 13 -130 -4 -18 -8 -75 -57 -127 -110 -52 -53 -99
-96 -105 -96 -6 0 -35 25 -65 55 l-55 55 137 138 c75 75 144 153 154 172 13
25 19 57 19 111 0 69 -3 81 -33 129 l-33 53 95 97 c53 53 103 113 111 133 22
52 19 152 -6 207 -28 63 -416 451 -479 479 -55 25 -155 28 -207 6 -20 -8 -80
-58 -134 -111 l-98 -96 -31 22 c-35 25 -110 50 -150 50 -14 0 -51 -7 -80 -16
-48 -14 -70 -32 -197 -157 l-143 -141 -55 54 c-30 30 -55 59 -55 64 0 5 45 55
100 111 54 56 104 114 110 129 14 38 13 91 -4 129 -18 41 -1251 1272 -1289
1286 -42 16 -87 13 -132 -8z m-47 -868 l-418 -418 -150 150 -150 150 417 417
418 418 150 -150 150 -150 -417 -417z m475 -475 l-418 -418 -177 177 -178 178
417 417 418 418 177 -177 178 -178 -417 -417z m690 144 l147 -147 -418 -418
-417 -417 -149 149 -149 150 413 415 c228 229 416 416 419 416 4 0 73 -66 154
-148z m1379 -470 c246 -246 241 -230 111 -364 l-87 -89 -238 238 -238 238 87
87 c81 81 91 88 127 88 39 0 47 -7 238 -198z m-335 -335 c357 -356 383 -385
383 -417 0 -32 -32 -67 -500 -535 -495 -496 -500 -500 -540 -500 -40 0 -45 5
-420 380 -354 354 -380 383 -380 415 0 33 33 67 503 537 470 471 504 503 537
503 32 0 61 -26 417 -383z m-1014 175 l57 -57 -118 -118 -117 -117 -60 60 -60
60 115 115 c63 63 117 115 120 115 3 0 31 -26 63 -58z m1555 -1789 l-418 -418
-150 150 -150 150 417 417 418 418 150 -150 150 -150 -417 -417z m-420 420
l-118 -118 -60 60 -60 60 117 117 118 118 60 -60 60 -60 -117 -117z m-1634
177 c230 -58 408 -227 483 -455 31 -95 37 -250 14 -354 -17 -75 -99 -245 -121
-249 -9 -1 -217 200 -485 468 -533 533 -490 469 -361 536 142 74 316 94 470
54z m2529 -1072 l-418 -418 -177 177 -178 178 417 417 418 418 177 -177 178
-178 -417 -417z m-2755 235 l-62 -62 -27 37 c-15 20 -41 46 -58 57 l-31 20 62
62 62 63 58 -57 58 -57 -62 -63z m3445 -91 l147 -147 -418 -418 -417 -417
-150 150 -150 150 415 415 c228 228 417 415 420 415 3 0 72 -66 153 -148z
m-3713 -3 c137 -77 90 -291 -68 -307 -61 -5 -113 17 -150 66 -36 47 -39 145
-6 189 55 73 147 95 224 52z"/>
</g>
</svg>
