<?xml version="1.0" encoding="iso-8859-1"?>
<!-- Generator: Adobe Illustrator 19.1.0, SVG Export Plug-In . SVG Version: 6.00 Build 0)  -->
<svg version="1.1" id="Capa_1" xmlns="http://www.w3.org/2000/svg" xmlns:xlink="http://www.w3.org/1999/xlink" x="0px" y="0px"
	 viewBox="0 0 333.482 333.482" style="enable-background:new 0 0 333.482 333.482;" xml:space="preserve">
<g>
	<path d="M315.667,134.414h-32.513C279.047,60.936,228.005,2.169,167.04,2.169c-31.434,0-60.843,14.885-82.823,41.909
		c-3.792,4.659-5.54,10.514-4.929,16.491c0.617,5.977,3.528,11.356,8.181,15.129c3.991,3.265,9.03,5.058,14.184,5.058
		c6.806,0,13.169-3.033,17.468-8.31c13.259-16.324,30.283-25.309,47.912-25.309c36.537,0,67.43,38.574,71.055,87.251h-31.71
		c-11.697,0-17.815,8.091-17.815,16.08c0,2.911,0.816,7.359,4.698,11.999l52.077,62.231c3.985,4.756,9.705,7.481,15.688,7.481
		c5.996,0,11.71-2.731,15.701-7.474l52.051-62.218c3.888-4.64,4.704-9.088,4.704-11.999
		C333.488,142.505,327.364,134.414,315.667,134.414z M318.932,154.234l-52.051,62.218c-3.072,3.657-8.612,3.65-11.69,0.006
		l-52.064-62.231c-1.491-1.767-1.71-3.104-1.71-3.753c0-2.012,1.851-3.226,4.962-3.226h45.026l-0.141-6.562
		C249.882,81.026,212.882,34.29,167.04,34.29c-21.575,0-42.134,10.669-57.886,30.058c-3.258,3.997-9.544,4.679-13.567,1.395
		c-1.999-1.626-3.246-3.927-3.509-6.491s0.488-5.071,2.108-7.076c19.493-23.966,45.373-37.166,72.861-37.166
		c55.74,0,102.167,56.498,103.498,125.947l0.122,6.298h45.007c3.111,0,4.968,1.208,4.968,3.226
		C320.641,151.124,320.416,152.461,318.932,154.234z M246,257.745c-3.997-3.246-9.03-5.032-14.171-5.032
		c-6.812,0-13.175,3.027-17.462,8.303c-13.271,16.324-30.296,25.309-47.925,25.309c-36.537,0-67.43-38.574-71.049-87.251h31.704
		c11.697,0,17.822-8.091,17.822-16.08c0-2.911-0.823-7.365-4.704-12.005l-52.07-62.225c-3.991-4.749-9.711-7.481-15.694-7.481
		c-5.983,0-11.71,2.731-15.694,7.487L4.704,170.989C0.816,175.629,0,180.077,0,182.982c0,7.989,6.125,16.08,17.822,16.08h32.513
		c4.107,73.484,55.136,132.251,116.107,132.251c31.421,0,60.843-14.885,82.829-41.916C257.093,279.77,255.627,265.573,246,257.745z
		 M239.297,281.293c-19.499,23.966-45.373,37.166-72.855,37.166c-55.753,0-102.187-56.498-103.498-125.953l-0.122-6.298H17.815
		c-3.111,0-4.968-1.208-4.968-3.226c0-0.643,0.225-1.979,1.716-3.747l52.051-62.218c1.536-1.825,3.663-2.879,5.842-2.879
		s4.312,1.054,5.848,2.879l52.064,62.225c1.491,1.767,1.716,3.111,1.716,3.76c0,2.012-1.857,3.226-4.968,3.226H82.09l0.141,6.568
		c1.382,59.654,38.375,106.39,84.217,106.39c21.568,0,42.134-10.669,57.899-30.058c3.246-3.972,9.537-4.666,13.554-1.401
		C242.022,271.081,242.645,277.16,239.297,281.293z"/>
</g>
<g>
</g>
<g>
</g>
<g>
</g>
<g>
</g>
<g>
</g>
<g>
</g>
<g>
</g>
<g>
</g>
<g>
</g>
<g>
</g>
<g>
</g>
<g>
</g>
<g>
</g>
<g>
</g>
<g>
</g>
</svg>
